<?xml version="1.0" encoding="UTF-8" standalone="no"?>
<!DOCTYPE svg PUBLIC "-//W3C//DTD SVG 1.1//EN"
 "http://www.w3.org/Graphics/SVG/1.1/DTD/svg11.dtd">
<!-- Generated by graphviz version 2.43.0 (0)
 -->
<!-- Title: search Pages: 1 -->
<svg width="1526pt" height="395pt"
 viewBox="0.00 0.00 1525.50 395.00" xmlns="http://www.w3.org/2000/svg" xmlns:xlink="http://www.w3.org/1999/xlink">
<g id="graph0" class="graph" transform="scale(1 1) rotate(0) translate(4 391)">
<title>search</title>
<polygon fill="white" stroke="transparent" points="-4,4 -4,-391 1521.5,-391 1521.5,4 -4,4"/>
<text text-anchor="middle" x="758.75" y="-371.8" font-family="Helvetica,sans-Serif" font-size="14.00">P1 · breadth_first · ascending · SUCESSO · 3 movimentos · custo 36</text>
<!-- n0 -->
<g id="node1" class="node">
<title>n0</title>
<path fill="#dbe9ff" stroke="#1a56b8" stroke-width="2.5" d="M1079,-364C1079,-364 972,-364 972,-364 966,-364 960,-358 960,-352 960,-352 960,-340 960,-340 960,-334 966,-328 972,-328 972,-328 1079,-328 1079,-328 1085,-328 1091,-334 1091,-340 1091,-340 1091,-352 1091,-352 1091,-358 1085,-364 1079,-364"/>
<text text-anchor="middle" x="1025.5" y="-349" font-family="monospace" font-size="10.00">#0</text>
<text text-anchor="middle" x="1025.5" y="-338" font-family="monospace" font-size="10.00">H1[V,R] H2[A] H3[·]</text>
</g>
<!-- n1 -->
<g id="node2" class="node">
<title>n1</title>
<path fill="#ffffff" stroke="#333333" d="M619,-282C619,-282 512,-282 512,-282 506,-282 500,-276 500,-270 500,-270 500,-258 500,-258 500,-252 506,-246 512,-246 512,-246 619,-246 619,-246 625,-246 631,-252 631,-258 631,-258 631,-270 631,-270 631,-276 625,-282 619,-282"/>
<text text-anchor="middle" x="565.5" y="-267" font-family="monospace" font-size="10.00">#1</text>
<text text-anchor="middle" x="565.5" y="-256" font-family="monospace" font-size="10.00">H1[V] H2[A,R] H3[·]</text>
</g>
<!-- n0&#45;&gt;n1 -->
<g id="edge1" class="edge">
<title>n0&#45;&gt;n1</title>
<path fill="none" stroke="#333333" d="M959.59,-333.54C875.39,-318.89 729.97,-293.6 641.28,-278.18"/>
<polygon fill="#333333" stroke="#333333" points="641.74,-274.71 631.28,-276.44 640.54,-281.6 641.74,-274.71"/>
<text text-anchor="middle" x="830" y="-302.8" font-family="Helvetica,sans-Serif" font-size="9.00" fill="#333333">R1</text>
</g>
<!-- n2 -->
<g id="node3" class="node">
<title>n2</title>
<path fill="#ffffff" stroke="#333333" d="M1027,-282C1027,-282 932,-282 932,-282 926,-282 920,-276 920,-270 920,-270 920,-258 920,-258 920,-252 926,-246 932,-246 932,-246 1027,-246 1027,-246 1033,-246 1039,-252 1039,-258 1039,-258 1039,-270 1039,-270 1039,-276 1033,-282 1027,-282"/>
<text text-anchor="middle" x="979.5" y="-267" font-family="monospace" font-size="10.00">#2</text>
<text text-anchor="middle" x="979.5" y="-256" font-family="monospace" font-size="10.00">H1[V] H2[A] H3[R]</text>
</g>
<!-- n0&#45;&gt;n2 -->
<g id="edge2" class="edge">
<title>n0&#45;&gt;n2</title>
<path fill="none" stroke="#333333" d="M1015.52,-327.64C1009.33,-316.87 1001.26,-302.85 994.33,-290.79"/>
<polygon fill="#333333" stroke="#333333" points="997.32,-288.97 989.3,-282.05 991.25,-292.46 997.32,-288.97"/>
<text text-anchor="middle" x="1012" y="-302.8" font-family="Helvetica,sans-Serif" font-size="9.00" fill="#333333">R2</text>
</g>
<!-- n3 -->
<g id="node4" class="node">
<title>n3</title>
<path fill="#ffffff" stroke="#333333" d="M1188,-282C1188,-282 1069,-282 1069,-282 1063,-282 1057,-276 1057,-270 1057,-270 1057,-258 1057,-258 1057,-252 1063,-246 1069,-246 1069,-246 1188,-246 1188,-246 1194,-246 1200,-252 1200,-258 1200,-258 1200,-270 1200,-270 1200,-276 1194,-282 1188,-282"/>
<text text-anchor="middle" x="1128.5" y="-267" font-family="monospace" font-size="10.00">#3</text>
<text text-anchor="middle" x="1128.5" y="-256" font-family="monospace" font-size="10.00">H1[V,R,A] H2[·] H3[·]</text>
</g>
<!-- n0&#45;&gt;n3 -->
<g id="edge3" class="edge">
<title>n0&#45;&gt;n3</title>
<path fill="none" stroke="#333333" d="M1047.6,-327.84C1062.4,-316.34 1082.07,-301.07 1098.31,-288.45"/>
<polygon fill="#333333" stroke="#333333" points="1100.69,-291.03 1106.44,-282.13 1096.4,-285.5 1100.69,-291.03"/>
<text text-anchor="middle" x="1090" y="-302.8" font-family="Helvetica,sans-Serif" font-size="9.00" fill="#333333">R3</text>
</g>
<!-- n4 -->
<g id="node5" class="node">
<title>n4</title>
<path fill="#ffffff" stroke="#1a56b8" stroke-width="2.5" d="M1433,-282C1433,-282 1326,-282 1326,-282 1320,-282 1314,-276 1314,-270 1314,-270 1314,-258 1314,-258 1314,-252 1320,-246 1326,-246 1326,-246 1433,-246 1433,-246 1439,-246 1445,-252 1445,-258 1445,-258 1445,-270 1445,-270 1445,-276 1439,-282 1433,-282"/>
<text text-anchor="middle" x="1379.5" y="-267" font-family="monospace" font-size="10.00">#4</text>
<text text-anchor="middle" x="1379.5" y="-256" font-family="monospace" font-size="10.00">H1[V,R] H2[·] H3[A]</text>
</g>
<!-- n0&#45;&gt;n4 -->
<g id="edge4" class="edge">
<title>n0&#45;&gt;n4</title>
<path fill="none" stroke="#1a56b8" stroke-width="2.5" d="M1091.26,-330.14C1151.52,-316.52 1240.71,-296.37 1303.89,-282.09"/>
<polygon fill="#1a56b8" stroke="#1a56b8" stroke-width="2.5" points="1304.81,-285.47 1313.8,-279.85 1303.27,-278.64 1304.81,-285.47"/>
<text text-anchor="middle" x="1231" y="-302.8" font-family="Helvetica,sans-Serif" font-size="9.00" fill="#1a56b8">R4</text>
</g>
<!-- n5 -->
<g id="node6" class="node">
<title>n5</title>
<path fill="#ffffff" stroke="#333333" d="M472,-200C472,-200 365,-200 365,-200 359,-200 353,-194 353,-188 353,-188 353,-176 353,-176 353,-170 359,-164 365,-164 365,-164 472,-164 472,-164 478,-164 484,-170 484,-176 484,-176 484,-188 484,-188 484,-194 478,-200 472,-200"/>
<text text-anchor="middle" x="418.5" y="-185" font-family="monospace" font-size="10.00">#5</text>
<text text-anchor="middle" x="418.5" y="-174" font-family="monospace" font-size="10.00">H1[·] H2[A,R] H3[V]</text>
</g>
<!-- n1&#45;&gt;n5 -->
<g id="edge5" class="edge">
<title>n1&#45;&gt;n5</title>
<path fill="none" stroke="#333333" d="M533.96,-245.84C512.07,-233.92 482.7,-217.94 459.06,-205.07"/>
<polygon fill="#333333" stroke="#333333" points="460.44,-201.84 449.98,-200.13 457.09,-207.99 460.44,-201.84"/>
<text text-anchor="middle" x="508" y="-220.8" font-family="Helvetica,sans-Serif" font-size="9.00" fill="#333333">R2</text>
</g>
<!-- p1_R3 -->
<g id="node18" class="node">
<title>p1_R3</title>
<text text-anchor="middle" x="529.5" y="-180.1" font-family="monospace" font-size="8.00" fill="#999999">R3</text>
</g>
<!-- n1&#45;&gt;p1_R3 -->
<g id="edge17" class="edge">
<title>n1&#45;&gt;p1_R3</title>
<path fill="none" stroke="#999999" stroke-dasharray="1,5" d="M557.69,-245.64C551.61,-232.13 543.22,-213.48 537.17,-200.05"/>
</g>
<!-- p1_R4 -->
<g id="node19" class="node">
<title>p1_R4</title>
<text text-anchor="middle" x="601.5" y="-180.1" font-family="monospace" font-size="8.00" fill="#999999">R4</text>
</g>
<!-- n1&#45;&gt;p1_R4 -->
<g id="edge18" class="edge">
<title>n1&#45;&gt;p1_R4</title>
<path fill="none" stroke="#999999" stroke-dasharray="1,5" d="M573.31,-245.64C579.39,-232.13 587.78,-213.48 593.83,-200.05"/>
</g>
<!-- n6 -->
<g id="node7" class="node">
<title>n6</title>
<path fill="#ffffff" stroke="#333333" d="M766,-200C766,-200 659,-200 659,-200 653,-200 647,-194 647,-188 647,-188 647,-176 647,-176 647,-170 653,-164 659,-164 659,-164 766,-164 766,-164 772,-164 778,-170 778,-176 778,-176 778,-188 778,-188 778,-194 772,-200 766,-200"/>
<text text-anchor="middle" x="712.5" y="-185" font-family="monospace" font-size="10.00">#6</text>
<text text-anchor="middle" x="712.5" y="-174" font-family="monospace" font-size="10.00">H1[·] H2[A,V] H3[R]</text>
</g>
<!-- n2&#45;&gt;n6 -->
<g id="edge6" class="edge">
<title>n2&#45;&gt;n6</title>
<path fill="none" stroke="#333333" d="M922.55,-245.94C880.55,-233.35 823.27,-216.19 779.14,-202.97"/>
<polygon fill="#333333" stroke="#333333" points="779.95,-199.56 769.36,-200.04 777.94,-206.26 779.95,-199.56"/>
<text text-anchor="middle" x="869" y="-220.8" font-family="Helvetica,sans-Serif" font-size="9.00" fill="#333333">R1</text>
</g>
<!-- n7 -->
<g id="node8" class="node">
<title>n7</title>
<path fill="#ffffff" stroke="#333333" d="M924,-200C924,-200 817,-200 817,-200 811,-200 805,-194 805,-188 805,-188 805,-176 805,-176 805,-170 811,-164 817,-164 817,-164 924,-164 924,-164 930,-164 936,-170 936,-176 936,-176 936,-188 936,-188 936,-194 930,-200 924,-200"/>
<text text-anchor="middle" x="870.5" y="-185" font-family="monospace" font-size="10.00">#7</text>
<text text-anchor="middle" x="870.5" y="-174" font-family="monospace" font-size="10.00">H1[V,A] H2[·] H3[R]</text>
</g>
<!-- n2&#45;&gt;n7 -->
<g id="edge7" class="edge">
<title>n2&#45;&gt;n7</title>
<path fill="none" stroke="#333333" d="M956.12,-245.84C940.31,-234.24 919.26,-218.78 901.98,-206.11"/>
<polygon fill="#333333" stroke="#333333" points="903.98,-203.23 893.84,-200.13 899.84,-208.87 903.98,-203.23"/>
<text text-anchor="middle" x="939" y="-220.8" font-family="Helvetica,sans-Serif" font-size="9.00" fill="#333333">R3</text>
</g>
<!-- p2_R5 -->
<g id="node20" class="node">
<title>p2_R5</title>
<text text-anchor="middle" x="981.5" y="-180.1" font-family="monospace" font-size="8.00" fill="#999999">R5</text>
</g>
<!-- n2&#45;&gt;p2_R5 -->
<g id="edge19" class="edge">
<title>n2&#45;&gt;p2_R5</title>
<path fill="none" stroke="#999999" stroke-dasharray="1,5" d="M979.93,-245.64C980.27,-232.13 980.74,-213.48 981.07,-200.05"/>
</g>
<!-- p2_R6 -->
<g id="node21" class="node">
<title>p2_R6</title>
<text text-anchor="middle" x="1053.5" y="-180.1" font-family="monospace" font-size="8.00" fill="#999999">R6</text>
</g>
<!-- n2&#45;&gt;p2_R6 -->
<g id="edge20" class="edge">
<title>n2&#45;&gt;p2_R6</title>
<path fill="none" stroke="#999999" stroke-dasharray="1,5" d="M995.56,-245.64C1008.05,-232.13 1025.3,-213.48 1037.73,-200.05"/>
</g>
<!-- p3_R1 -->
<g id="node22" class="node">
<title>p3_R1</title>
<text text-anchor="middle" x="1127.5" y="-180.1" font-family="monospace" font-size="8.00" fill="#999999">R1</text>
</g>
<!-- n3&#45;&gt;p3_R1 -->
<g id="edge21" class="edge">
<title>n3&#45;&gt;p3_R1</title>
<path fill="none" stroke="#999999" stroke-dasharray="1,5" d="M1128.28,-245.64C1128.11,-232.13 1127.88,-213.48 1127.71,-200.05"/>
</g>
<!-- p3_R2 -->
<g id="node23" class="node">
<title>p3_R2</title>
<text text-anchor="middle" x="1199.5" y="-180.1" font-family="monospace" font-size="8.00" fill="#999999">R2</text>
</g>
<!-- n3&#45;&gt;p3_R2 -->
<g id="edge22" class="edge">
<title>n3&#45;&gt;p3_R2</title>
<path fill="none" stroke="#999999" stroke-dasharray="1,5" d="M1143.91,-245.64C1155.9,-232.13 1172.45,-213.48 1184.37,-200.05"/>
</g>
<!-- n8 -->
<g id="node9" class="node">
<title>n8</title>
<path fill="#ffffff" stroke="#1a56b8" stroke-width="2.5" d="M1355,-200C1355,-200 1260,-200 1260,-200 1254,-200 1248,-194 1248,-188 1248,-188 1248,-176 1248,-176 1248,-170 1254,-164 1260,-164 1260,-164 1355,-164 1355,-164 1361,-164 1367,-170 1367,-176 1367,-176 1367,-188 1367,-188 1367,-194 1361,-200 1355,-200"/>
<text text-anchor="middle" x="1307.5" y="-185" font-family="monospace" font-size="10.00">#8</text>
<text text-anchor="middle" x="1307.5" y="-174" font-family="monospace" font-size="10.00">H1[V] H2[R] H3[A]</text>
</g>
<!-- n4&#45;&gt;n8 -->
<g id="edge8" class="edge">
<title>n4&#45;&gt;n8</title>
<path fill="none" stroke="#1a56b8" stroke-width="2.5" d="M1363.88,-245.64C1353.9,-234.56 1340.82,-220.02 1329.76,-207.74"/>
<polygon fill="#1a56b8" stroke="#1a56b8" stroke-width="2.5" points="1332.14,-205.14 1322.85,-200.05 1326.93,-209.82 1332.14,-205.14"/>
<text text-anchor="middle" x="1355" y="-220.8" font-family="Helvetica,sans-Serif" font-size="9.00" fill="#1a56b8">R1</text>
</g>
<!-- p4_R5 -->
<g id="node24" class="node">
<title>p4_R5</title>
<text text-anchor="middle" x="1412.5" y="-180.1" font-family="monospace" font-size="8.00" fill="#999999">R5</text>
</g>
<!-- n4&#45;&gt;p4_R5 -->
<g id="edge23" class="edge">
<title>n4&#45;&gt;p4_R5</title>
<path fill="none" stroke="#999999" stroke-dasharray="1,5" d="M1386.66,-245.64C1392.23,-232.13 1399.93,-213.48 1405.47,-200.05"/>
</g>
<!-- p4_R6 -->
<g id="node25" class="node">
<title>p4_R6</title>
<text text-anchor="middle" x="1484.5" y="-180.1" font-family="monospace" font-size="8.00" fill="#999999">R6</text>
</g>
<!-- n4&#45;&gt;p4_R6 -->
<g id="edge24" class="edge">
<title>n4&#45;&gt;p4_R6</title>
<path fill="none" stroke="#999999" stroke-dasharray="1,5" d="M1402.03,-245.84C1419.74,-232.34 1444.31,-213.62 1462.01,-200.13"/>
</g>
<!-- n9 -->
<g id="node10" class="node">
<title>n9</title>
<path fill="#ffffff" stroke="#333333" d="M367,-118C367,-118 272,-118 272,-118 266,-118 260,-112 260,-106 260,-106 260,-94 260,-94 260,-88 266,-82 272,-82 272,-82 367,-82 367,-82 373,-82 379,-88 379,-94 379,-94 379,-106 379,-106 379,-112 373,-118 367,-118"/>
<text text-anchor="middle" x="319.5" y="-103" font-family="monospace" font-size="10.00">#9</text>
<text text-anchor="middle" x="319.5" y="-92" font-family="monospace" font-size="10.00">H1[R] H2[A] H3[V]</text>
</g>
<!-- n5&#45;&gt;n9 -->
<g id="edge9" class="edge">
<title>n5&#45;&gt;n9</title>
<path fill="none" stroke="#333333" d="M397.02,-163.64C382.78,-152.14 363.93,-136.9 348.39,-124.34"/>
<polygon fill="#333333" stroke="#333333" points="350.58,-121.61 340.6,-118.05 346.18,-127.06 350.58,-121.61"/>
<text text-anchor="middle" x="382" y="-138.8" font-family="Helvetica,sans-Serif" font-size="9.00" fill="#333333">R3</text>
</g>
<!-- p5_R5 -->
<g id="node26" class="node">
<title>p5_R5</title>
<text text-anchor="middle" x="424.5" y="-98.1" font-family="monospace" font-size="8.00" fill="#999999">R5</text>
</g>
<!-- n5&#45;&gt;p5_R5 -->
<g id="edge25" class="edge">
<title>n5&#45;&gt;p5_R5</title>
<path fill="none" stroke="#999999" stroke-dasharray="1,5" d="M419.8,-163.64C420.82,-150.13 422.21,-131.48 423.22,-118.05"/>
</g>
<!-- n10 -->
<g id="node11" class="node">
<title>n10</title>
<path fill="#ffffff" stroke="#333333" d="M607,-118C607,-118 500,-118 500,-118 494,-118 488,-112 488,-106 488,-106 488,-94 488,-94 488,-88 494,-82 500,-82 500,-82 607,-82 607,-82 613,-82 619,-88 619,-94 619,-94 619,-106 619,-106 619,-112 613,-118 607,-118"/>
<text text-anchor="middle" x="553.5" y="-103" font-family="monospace" font-size="10.00">#10</text>
<text text-anchor="middle" x="553.5" y="-92" font-family="monospace" font-size="10.00">H1[R] H2[A,V] H3[·]</text>
</g>
<!-- n6&#45;&gt;n10 -->
<g id="edge10" class="edge">
<title>n6&#45;&gt;n10</title>
<path fill="none" stroke="#333333" d="M678.39,-163.84C654.5,-151.82 622.38,-135.66 596.7,-122.73"/>
<polygon fill="#333333" stroke="#333333" points="598.06,-119.5 587.55,-118.13 594.91,-125.75 598.06,-119.5"/>
<text text-anchor="middle" x="650" y="-138.8" font-family="Helvetica,sans-Serif" font-size="9.00" fill="#333333">R5</text>
</g>
<!-- p6_R3 -->
<g id="node27" class="node">
<title>p6_R3</title>
<text text-anchor="middle" x="664.5" y="-98.1" font-family="monospace" font-size="8.00" fill="#999999">R3</text>
</g>
<!-- n6&#45;&gt;p6_R3 -->
<g id="edge26" class="edge">
<title>n6&#45;&gt;p6_R3</title>
<path fill="none" stroke="#999999" stroke-dasharray="1,5" d="M702.08,-163.64C693.98,-150.13 682.79,-131.48 674.73,-118.05"/>
</g>
<!-- n11 -->
<g id="node12" class="node">
<title>n11</title>
<path fill="#ffffff" stroke="#333333" d="M841,-118C841,-118 722,-118 722,-118 716,-118 710,-112 710,-106 710,-106 710,-94 710,-94 710,-88 716,-82 722,-82 722,-82 841,-82 841,-82 847,-82 853,-88 853,-94 853,-94 853,-106 853,-106 853,-112 847,-118 841,-118"/>
<text text-anchor="middle" x="781.5" y="-103" font-family="monospace" font-size="10.00">#11</text>
<text text-anchor="middle" x="781.5" y="-92" font-family="monospace" font-size="10.00">H1[V,A,R] H2[·] H3[·]</text>
</g>
<!-- n7&#45;&gt;n11 -->
<g id="edge11" class="edge">
<title>n7&#45;&gt;n11</title>
<path fill="none" stroke="#333333" d="M851.19,-163.64C838.62,-152.35 822.06,-137.46 808.24,-125.04"/>
<polygon fill="#333333" stroke="#333333" points="810.25,-122.13 800.47,-118.05 805.57,-127.34 810.25,-122.13"/>
<text text-anchor="middle" x="838" y="-138.8" font-family="Helvetica,sans-Serif" font-size="9.00" fill="#333333">R5</text>
</g>
<!-- n12 -->
<g id="node13" class="node">
<title>n12</title>
<path fill="#ffffff" stroke="#333333" d="M990,-118C990,-118 883,-118 883,-118 877,-118 871,-112 871,-106 871,-106 871,-94 871,-94 871,-88 877,-82 883,-82 883,-82 990,-82 990,-82 996,-82 1002,-88 1002,-94 1002,-94 1002,-106 1002,-106 1002,-112 996,-118 990,-118"/>
<text text-anchor="middle" x="936.5" y="-103" font-family="monospace" font-size="10.00">#12</text>
<text text-anchor="middle" x="936.5" y="-92" font-family="monospace" font-size="10.00">H1[V,A] H2[R] H3[·]</text>
</g>
<!-- n7&#45;&gt;n12 -->
<g id="edge12" class="edge">
<title>n7&#45;&gt;n12</title>
<path fill="none" stroke="#333333" d="M884.82,-163.64C893.88,-152.66 905.73,-138.29 915.8,-126.09"/>
<polygon fill="#333333" stroke="#333333" points="918.77,-127.99 922.43,-118.05 913.37,-123.54 918.77,-127.99"/>
<text text-anchor="middle" x="914" y="-138.8" font-family="Helvetica,sans-Serif" font-size="9.00" fill="#333333">R6</text>
</g>
<!-- p7_R1 -->
<g id="node28" class="node">
<title>p7_R1</title>
<text text-anchor="middle" x="1047.5" y="-98.1" font-family="monospace" font-size="8.00" fill="#999999">R1</text>
</g>
<!-- n7&#45;&gt;p7_R1 -->
<g id="edge27" class="edge">
<title>n7&#45;&gt;p7_R1</title>
<path fill="none" stroke="#999999" stroke-dasharray="1,5" d="M908.57,-163.97C936.74,-151.34 976.05,-133.67 1010.5,-118 1013.72,-116.54 1017.09,-115 1020.43,-113.47"/>
</g>
<!-- n13 -->
<g id="node14" class="node">
<title>n13</title>
<path fill="#c6f0c6" stroke="#1a56b8" stroke-width="2.5" d="M1212,-118C1212,-118 1105,-118 1105,-118 1099,-118 1093,-112 1093,-106 1093,-106 1093,-94 1093,-94 1093,-88 1099,-82 1105,-82 1105,-82 1212,-82 1212,-82 1218,-82 1224,-88 1224,-94 1224,-94 1224,-106 1224,-106 1224,-112 1218,-118 1212,-118"/>
<text text-anchor="middle" x="1158.5" y="-103" font-family="monospace" font-size="10.00">#13</text>
<text text-anchor="middle" x="1158.5" y="-92" font-family="monospace" font-size="10.00">H1[·] H2[R,V] H3[A]</text>
</g>
<!-- n8&#45;&gt;n13 -->
<g id="edge13" class="edge">
<title>n8&#45;&gt;n13</title>
<path fill="none" stroke="#1a56b8" stroke-width="2.5" d="M1275.54,-163.84C1253.24,-151.87 1223.31,-135.8 1199.3,-122.9"/>
<polygon fill="#1a56b8" stroke="#1a56b8" stroke-width="2.5" points="1200.88,-119.78 1190.41,-118.13 1197.57,-125.95 1200.88,-119.78"/>
<text text-anchor="middle" x="1249" y="-138.8" font-family="Helvetica,sans-Serif" font-size="9.00" fill="#1a56b8">R1</text>
</g>
<!-- n14 -->
<g id="node15" class="node">
<title>n14</title>
<path fill="#eeeeee" stroke="#333333" d="M1361,-118C1361,-118 1254,-118 1254,-118 1248,-118 1242,-112 1242,-106 1242,-106 1242,-94 1242,-94 1242,-88 1248,-82 1254,-82 1254,-82 1361,-82 1361,-82 1367,-82 1373,-88 1373,-94 1373,-94 1373,-106 1373,-106 1373,-112 1367,-118 1361,-118"/>
<text text-anchor="middle" x="1307.5" y="-103" font-family="monospace" font-size="10.00">#14</text>
<text text-anchor="middle" x="1307.5" y="-92" font-family="monospace" font-size="10.00">H1[V] H2[R,A] H3[·]</text>
</g>
<!-- n8&#45;&gt;n14 -->
<g id="edge14" class="edge">
<title>n8&#45;&gt;n14</title>
<path fill="none" stroke="#333333" d="M1307.5,-163.64C1307.5,-153.3 1307.5,-139.94 1307.5,-128.22"/>
<polygon fill="#333333" stroke="#333333" points="1311,-128.05 1307.5,-118.05 1304,-128.05 1311,-128.05"/>
<text text-anchor="middle" x="1314" y="-138.8" font-family="Helvetica,sans-Serif" font-size="9.00" fill="#333333">R6</text>
</g>
<!-- p8_R3 -->
<g id="node29" class="node">
<title>p8_R3</title>
<text text-anchor="middle" x="1418.5" y="-98.1" font-family="monospace" font-size="8.00" fill="#999999">R3</text>
</g>
<!-- n8&#45;&gt;p8_R3 -->
<g id="edge28" class="edge">
<title>n8&#45;&gt;p8_R3</title>
<path fill="none" stroke="#999999" stroke-dasharray="1,5" d="M1331.31,-163.84C1350.04,-150.34 1376.01,-131.62 1394.73,-118.13"/>
</g>
<!-- p8_R5 -->
<g id="node30" class="node">
<title>p8_R5</title>
<text text-anchor="middle" x="1490.5" y="-98.1" font-family="monospace" font-size="8.00" fill="#999999">R5</text>
</g>
<!-- n8&#45;&gt;p8_R5 -->
<g id="edge29" class="edge">
<title>n8&#45;&gt;p8_R5</title>
<path fill="none" stroke="#999999" stroke-dasharray="1,5" d="M1348.54,-163.88C1378.12,-151.43 1418.93,-134.02 1454.5,-118 1457.4,-116.69 1460.42,-115.31 1463.42,-113.92"/>
</g>
<!-- n15 -->
<g id="node16" class="node">
<title>n15</title>
<path fill="#eeeeee" stroke="#333333" d="M119,-36C119,-36 12,-36 12,-36 6,-36 0,-30 0,-24 0,-24 0,-12 0,-12 0,-6 6,0 12,0 12,0 119,0 119,0 125,0 131,-6 131,-12 131,-12 131,-24 131,-24 131,-30 125,-36 119,-36"/>
<text text-anchor="middle" x="65.5" y="-21" font-family="monospace" font-size="10.00">#15</text>
<text text-anchor="middle" x="65.5" y="-10" font-family="monospace" font-size="10.00">H1[R,A] H2[·] H3[V]</text>
</g>
<!-- n9&#45;&gt;n15 -->
<g id="edge15" class="edge">
<title>n9&#45;&gt;n15</title>
<path fill="none" stroke="#333333" d="M265.32,-81.94C225.45,-69.38 171.11,-52.26 129.16,-39.05"/>
<polygon fill="#333333" stroke="#333333" points="130.18,-35.7 119.59,-36.04 128.08,-42.38 130.18,-35.7"/>
<text text-anchor="middle" x="215" y="-56.8" font-family="Helvetica,sans-Serif" font-size="9.00" fill="#333333">R3</text>
</g>
<!-- n16 -->
<g id="node17" class="node">
<title>n16</title>
<path fill="#eeeeee" stroke="#333333" d="M268,-36C268,-36 161,-36 161,-36 155,-36 149,-30 149,-24 149,-24 149,-12 149,-12 149,-6 155,0 161,0 161,0 268,0 268,0 274,0 280,-6 280,-12 280,-12 280,-24 280,-24 280,-30 274,-36 268,-36"/>
<text text-anchor="middle" x="214.5" y="-21" font-family="monospace" font-size="10.00">#16</text>
<text text-anchor="middle" x="214.5" y="-10" font-family="monospace" font-size="10.00">H1[R,V] H2[A] H3[·]</text>
</g>
<!-- n9&#45;&gt;n16 -->
<g id="edge16" class="edge">
<title>n9&#45;&gt;n16</title>
<path fill="none" stroke="#333333" d="M296.97,-81.84C281.89,-70.34 261.84,-55.07 245.28,-42.45"/>
<polygon fill="#333333" stroke="#333333" points="247.06,-39.41 236.99,-36.13 242.82,-44.98 247.06,-39.41"/>
<text text-anchor="middle" x="280" y="-56.8" font-family="Helvetica,sans-Serif" font-size="9.00" fill="#333333">R5</text>
</g>
<!-- p9_R1 -->
<g id="node31" class="node">
<title>p9_R1</title>
<text text-anchor="middle" x="325.5" y="-16.1" font-family="monospace" font-size="8.00" fill="#999999">R1</text>
</g>
<!-- n9&#45;&gt;p9_R1 -->
<g id="edge30" class="edge">
<title>n9&#45;&gt;p9_R1</title>
<path fill="none" stroke="#999999" stroke-dasharray="1,5" d="M320.8,-81.64C321.82,-68.13 323.21,-49.48 324.22,-36.05"/>
</g>
<!-- p9_R6 -->
<g id="node32" class="node">
<title>p9_R6</title>
<text text-anchor="middle" x="397.5" y="-16.1" font-family="monospace" font-size="8.00" fill="#999999">R6</text>
</g>
<!-- n9&#45;&gt;p9_R6 -->
<g id="edge31" class="edge">
<title>n9&#45;&gt;p9_R6</title>
<path fill="none" stroke="#999999" stroke-dasharray="1,5" d="M336.42,-81.64C349.6,-68.13 367.78,-49.48 380.88,-36.05"/>
</g>
<!-- p10_R2 -->
<g id="node33" class="node">
<title>p10_R2</title>
<text text-anchor="middle" x="481.5" y="-16.1" font-family="monospace" font-size="8.00" fill="#999999">R2</text>
</g>
<!-- n10&#45;&gt;p10_R2 -->
<g id="edge32" class="edge">
<title>n10&#45;&gt;p10_R2</title>
<path fill="none" stroke="#999999" stroke-dasharray="1,5" d="M537.88,-81.64C525.72,-68.13 508.93,-49.48 496.85,-36.05"/>
</g>
<!-- p10_R3 -->
<g id="node34" class="node">
<title>p10_R3</title>
<text text-anchor="middle" x="553.5" y="-16.1" font-family="monospace" font-size="8.00" fill="#999999">R3</text>
</g>
<!-- n10&#45;&gt;p10_R3 -->
<g id="edge33" class="edge">
<title>n10&#45;&gt;p10_R3</title>
<path fill="none" stroke="#999999" stroke-dasharray="1,5" d="M553.5,-81.64C553.5,-68.13 553.5,-49.48 553.5,-36.05"/>
</g>
<!-- p10_R4 -->
<g id="node35" class="node">
<title>p10_R4</title>
<text text-anchor="middle" x="625.5" y="-16.1" font-family="monospace" font-size="8.00" fill="#999999">R4</text>
</g>
<!-- n10&#45;&gt;p10_R4 -->
<g id="edge34" class="edge">
<title>n10&#45;&gt;p10_R4</title>
<path fill="none" stroke="#999999" stroke-dasharray="1,5" d="M569.12,-81.64C581.28,-68.13 598.07,-49.48 610.15,-36.05"/>
</g>
<!-- p11_R1 -->
<g id="node36" class="node">
<title>p11_R1</title>
<text text-anchor="middle" x="714.5" y="-16.1" font-family="monospace" font-size="8.00" fill="#999999">R1</text>
</g>
<!-- n11&#45;&gt;p11_R1 -->
<g id="edge35" class="edge">
<title>n11&#45;&gt;p11_R1</title>
<path fill="none" stroke="#999999" stroke-dasharray="1,5" d="M766.96,-81.64C755.65,-68.13 740.03,-49.48 728.78,-36.05"/>
</g>
<!-- p11_R2 -->
<g id="node37" class="node">
<title>p11_R2</title>
<text text-anchor="middle" x="786.5" y="-16.1" font-family="monospace" font-size="8.00" fill="#999999">R2</text>
</g>
<!-- n11&#45;&gt;p11_R2 -->
<g id="edge36" class="edge">
<title>n11&#45;&gt;p11_R2</title>
<path fill="none" stroke="#999999" stroke-dasharray="1,5" d="M782.58,-81.64C783.43,-68.13 784.59,-49.48 785.43,-36.05"/>
</g>
<!-- p12_R1 -->
<g id="node38" class="node">
<title>p12_R1</title>
<text text-anchor="middle" x="861.5" y="-16.1" font-family="monospace" font-size="8.00" fill="#999999">R1</text>
</g>
<!-- n12&#45;&gt;p12_R1 -->
<g id="edge37" class="edge">
<title>n12&#45;&gt;p12_R1</title>
<path fill="none" stroke="#999999" stroke-dasharray="1,5" d="M920.23,-81.64C907.56,-68.13 890.08,-49.48 877.48,-36.05"/>
</g>
<!-- p12_R2 -->
<g id="node39" class="node">
<title>p12_R2</title>
<text text-anchor="middle" x="933.5" y="-16.1" font-family="monospace" font-size="8.00" fill="#999999">R2</text>
</g>
<!-- n12&#45;&gt;p12_R2 -->
<g id="edge38" class="edge">
<title>n12&#45;&gt;p12_R2</title>
<path fill="none" stroke="#999999" stroke-dasharray="1,5" d="M935.85,-81.64C935.34,-68.13 934.64,-49.48 934.14,-36.05"/>
</g>
<!-- p12_R3 -->
<g id="node40" class="node">
<title>p12_R3</title>
<text text-anchor="middle" x="1005.5" y="-16.1" font-family="monospace" font-size="8.00" fill="#999999">R3</text>
</g>
<!-- n12&#45;&gt;p12_R3 -->
<g id="edge39" class="edge">
<title>n12&#45;&gt;p12_R3</title>
<path fill="none" stroke="#999999" stroke-dasharray="1,5" d="M951.47,-81.64C963.12,-68.13 979.21,-49.48 990.79,-36.05"/>
</g>
<!-- p12_R4 -->
<g id="node41" class="node">
<title>p12_R4</title>
<text text-anchor="middle" x="1077.5" y="-16.1" font-family="monospace" font-size="8.00" fill="#999999">R4</text>
</g>
<!-- n12&#45;&gt;p12_R4 -->
<g id="edge40" class="edge">
<title>n12&#45;&gt;p12_R4</title>
<path fill="none" stroke="#999999" stroke-dasharray="1,5" d="M966.75,-81.84C991.51,-67.79 1026.23,-48.09 1050.17,-34.51"/>
</g>
</g>
</svg>
