<?xml version="1.0" encoding="UTF-8" standalone="no"?>
<!DOCTYPE svg PUBLIC "-//W3C//DTD SVG 1.1//EN"
 "http://www.w3.org/Graphics/SVG/1.1/DTD/svg11.dtd">
<!-- Generated by graphviz version 16.0.0 (20260814.1018)
 -->
<!-- Title: search Pages: 1 -->
<svg width="299pt" height="309pt"
 viewBox="0.00 0.00 299.00 309.00" xmlns="http://www.w3.org/2000/svg" xmlns:xlink="http://www.w3.org/1999/xlink">
<g id="graph0" class="graph" transform="scale(1 1) rotate(0) translate(4 304.75)">
<title>search</title>
<polygon fill="white" stroke="none" points="-4,4 -4,-304.75 294.5,-304.75 294.5,4 -4,4"/>
<text xml:space="preserve" text-anchor="middle" x="145.25" y="-283.45" font-family="Helvetica,sans-Serif" font-size="14.00">P1 · irrevocable · descending · IMPASSE</text>
<!-- n0 -->
<g id="node1" class="node">
<title>n0</title>
<path fill="#dbe9ff" stroke="#333333" d="M244.75,-275.5C244.75,-275.5 138.75,-275.5 138.75,-275.5 132.75,-275.5 126.75,-269.5 126.75,-263.5 126.75,-263.5 126.75,-251.5 126.75,-251.5 126.75,-245.5 132.75,-239.5 138.75,-239.5 138.75,-239.5 244.75,-239.5 244.75,-239.5 250.75,-239.5 256.75,-245.5 256.75,-251.5 256.75,-251.5 256.75,-263.5 256.75,-263.5 256.75,-269.5 250.75,-275.5 244.75,-275.5"/>
<text xml:space="preserve" text-anchor="middle" x="191.75" y="-260.75" font-family="monospace" font-size="10.00">#0</text>
<text xml:space="preserve" text-anchor="middle" x="191.75" y="-248" font-family="monospace" font-size="10.00">H1[V,R] H2[A] H3[·]</text>
</g>
<!-- n1 -->
<g id="node2" class="node">
<title>n1</title>
<path fill="#ffffff" stroke="#333333" d="M244.75,-192.25C244.75,-192.25 138.75,-192.25 138.75,-192.25 132.75,-192.25 126.75,-186.25 126.75,-180.25 126.75,-180.25 126.75,-168.25 126.75,-168.25 126.75,-162.25 132.75,-156.25 138.75,-156.25 138.75,-156.25 244.75,-156.25 244.75,-156.25 250.75,-156.25 256.75,-162.25 256.75,-168.25 256.75,-168.25 256.75,-180.25 256.75,-180.25 256.75,-186.25 250.75,-192.25 244.75,-192.25"/>
<text xml:space="preserve" text-anchor="middle" x="191.75" y="-177.5" font-family="monospace" font-size="10.00">#1</text>
<text xml:space="preserve" text-anchor="middle" x="191.75" y="-164.75" font-family="monospace" font-size="10.00">H1[V,R] H2[·] H3[A]</text>
</g>
<!-- n0&#45;&gt;n1 -->
<g id="edge1" class="edge">
<title>n0&#45;&gt;n1</title>
<path fill="none" stroke="#333333" d="M191.75,-239.27C191.75,-229 191.75,-215.7 191.75,-203.89"/>
<polygon fill="#333333" stroke="#333333" points="195.25,-204.25 191.75,-194.25 188.25,-204.25 195.25,-204.25"/>
<text xml:space="preserve" text-anchor="middle" x="197.75" y="-212.95" font-family="Helvetica,sans-Serif" font-size="9.00" fill="#333333">R4</text>
</g>
<!-- n2 -->
<g id="node3" class="node">
<title>n2</title>
<path fill="#f7c6c6" stroke="#333333" d="M163.75,-109C163.75,-109 45.75,-109 45.75,-109 39.75,-109 33.75,-103 33.75,-97 33.75,-97 33.75,-85 33.75,-85 33.75,-79 39.75,-73 45.75,-73 45.75,-73 163.75,-73 163.75,-73 169.75,-73 175.75,-79 175.75,-85 175.75,-85 175.75,-97 175.75,-97 175.75,-103 169.75,-109 163.75,-109"/>
<text xml:space="preserve" text-anchor="middle" x="104.75" y="-94.25" font-family="monospace" font-size="10.00">#2</text>
<text xml:space="preserve" text-anchor="middle" x="104.75" y="-81.5" font-family="monospace" font-size="10.00">H1[V,R,A] H2[·] H3[·]</text>
</g>
<!-- n1&#45;&gt;n2 -->
<g id="edge2" class="edge">
<title>n1&#45;&gt;n2</title>
<path fill="none" stroke="#333333" d="M173.3,-156.02C161.16,-144.68 145.06,-129.65 131.52,-117"/>
<polygon fill="#333333" stroke="#333333" points="134.28,-114.79 124.58,-110.52 129.5,-119.9 134.28,-114.79"/>
<text xml:space="preserve" text-anchor="middle" x="159.46" y="-129.7" font-family="Helvetica,sans-Serif" font-size="9.00" fill="#333333">R5</text>
</g>
<!-- p1_R6 -->
<g id="node4" class="node">
<title>p1_R6</title>
<text xml:space="preserve" text-anchor="middle" x="220.75" y="-88.28" font-family="monospace" font-size="8.00" fill="#999999">R6</text>
</g>
<!-- n1&#45;&gt;p1_R6 -->
<g id="edge3" class="edge">
<title>n1&#45;&gt;p1_R6</title>
<path fill="none" stroke="#999999" stroke-dasharray="1,5" d="M197.9,-156.02C202.85,-142.14 209.78,-122.73 214.71,-108.93"/>
</g>
<!-- p2_R2 -->
<g id="node5" class="node">
<title>p2_R2</title>
<text xml:space="preserve" text-anchor="middle" x="68.75" y="-15.28" font-family="monospace" font-size="8.00" fill="#999999">R2</text>
</g>
<!-- n2&#45;&gt;p2_R2 -->
<g id="edge4" class="edge">
<title>n2&#45;&gt;p2_R2</title>
<path fill="none" stroke="#999999" stroke-dasharray="1,5" d="M96.04,-72.81C90.29,-61.49 82.81,-46.73 77.14,-35.54"/>
</g>
<!-- p2_R1 -->
<g id="node6" class="node">
<title>p2_R1</title>
<text xml:space="preserve" text-anchor="middle" x="140.75" y="-15.28" font-family="monospace" font-size="8.00" fill="#999999">R1</text>
</g>
<!-- n2&#45;&gt;p2_R1 -->
<g id="edge5" class="edge">
<title>n2&#45;&gt;p2_R1</title>
<path fill="none" stroke="#999999" stroke-dasharray="1,5" d="M113.46,-72.81C119.21,-61.49 126.69,-46.73 132.36,-35.54"/>
</g>
</g>
</svg>
